# xmcd CD database file
#
# Track frame offsets:
#	150
#	16444
#	38070
#	55003
#	69119
#
# Disc length: 1150 seconds
#
# Revision: 0
# Processed by: cddbd v1.5.2PL0 Copyright (c) Steve Scherf et al.
# Submitted via: CDex 1.51
#
DISCID=33047c05
DTITLE=Bryan White - Out Of The Storm (Limited Edition EP)
DYEAR=2006
DGENRE=Country
TTITLE0=Get It Together!
TTITLE1=When You Come Around
TTITLE2=Hands Of Time (With Steve Wariner)
TTITLE3=The Little Things
TTITLE4=On My Own (Hymn Of The Road)
EXTD=YEAR: 2006
EXTT0=
EXTT1=
EXTT2=
EXTT3=
EXTT4=
PLAYORDER=
